<svg width="100" height="100" viewBox="0 0 100 100" xmlns="http://www.w3.org/2000/svg" xml:space="preserve" version="1.1">
 <desc>OnlyCat Icon</desc>

 <g>
  <title>Cat Icon</title>
  <g id="polygon853" transform="matrix(1 0 0 1 487.69 544.43)">
   <polygon id="svg_3" fill-rule="nonzero" fill="rgb(0,0,0)" stroke-miterlimit="4" stroke-linejoin="miter" stroke-dashoffset="0" stroke-linecap="butt" stroke-dasharray="none" stroke-width="0" stroke="none" points="-412.010009765625,-494.7900085449219 -407.8999938964844,-483.5299987792969 -414.1000061035156,-479.20001220703125 -412.010009765625,-494.7900085449219" vector-effect="non-scaling-stroke"/>
  </g>
  <g id="polygon855" transform="matrix(1 0 0 1 480.03 530.91)">
   <polygon id="svg_4" fill-rule="nonzero" fill="rgb(0,0,0)" stroke-miterlimit="4" stroke-linejoin="miter" stroke-dashoffset="0" stroke-linecap="butt" stroke-dasharray="none" stroke-width="0" stroke="none" points="-416.29998779296875,-496.1199951171875 -405.70001220703125,-484.4100036621094 -410.7300109863281,-477.8800048828125 -416.29998779296875,-496.1199951171875" vector-effect="non-scaling-stroke"/>
  </g>
  <g id="polygon857" transform="matrix(1 0 0 1 465.52 514.56)">
   <polygon id="svg_5" fill-rule="nonzero" fill="rgb(0,0,0)" stroke-miterlimit="4" stroke-linejoin="miter" stroke-dashoffset="0" stroke-linecap="butt" stroke-dasharray="none" stroke-width="0" stroke="none" points="-417.6600036621094,-483.2300109863281 -406.8699951171875,-496.989990234375 -404.3399963378906,-483.1400146484375 -412.5199890136719,-477.010009765625 -417.6600036621094,-483.2300109863281" vector-effect="non-scaling-stroke"/>
  </g>
  <g id="polygon859" transform="matrix(1 0 0 1 454.7 524.55)">
   <polygon id="svg_6" fill-rule="nonzero" fill="rgb(0,0,0)" stroke-miterlimit="4" stroke-linejoin="miter" stroke-dashoffset="0" stroke-linecap="butt" stroke-dasharray="none" stroke-width="0" stroke="none" points="-408.1199951171875,-492.07000732421875 -403.3800048828125,-486.3399963378906 -418.6199951171875,-481.92999267578125 -408.1199951171875,-492.07000732421875" vector-effect="non-scaling-stroke"/>
  </g>
  <g id="polygon861" transform="matrix(1 0 0 1 452.91 532.38)">
   <polygon id="svg_7" fill-rule="nonzero" fill="rgb(0,0,0)" stroke-miterlimit="4" stroke-linejoin="miter" stroke-dashoffset="0" stroke-linecap="butt" stroke-dasharray="none" stroke-width="0" stroke="none" points="-418.70001220703125,-487.1199951171875 -403.29998779296875,-491.5799865722656 -409.94000244140625,-482.4200134277344 -418.70001220703125,-487.1199951171875" vector-effect="non-scaling-stroke"/>
  </g>
  <g id="polygon863" transform="matrix(1 0 0 1 471.71 529.49)">
   <polygon id="svg_8" fill-rule="nonzero" fill="rgb(0,0,0)" stroke-miterlimit="4" stroke-linejoin="miter" stroke-dashoffset="0" stroke-linecap="butt" stroke-dasharray="none" stroke-width="0" stroke="none" points="-417.6700134277344,-490.79998779296875 -410.1199951171875,-496.4800109863281 -404.3299865722656,-477.5199890136719 -417.6700134277344,-490.79998779296875" vector-effect="non-scaling-stroke"/>
  </g>
  <g id="polygon865" transform="matrix(1 0 0 1 462.87 539.25)">
   <polygon id="svg_9" fill-rule="nonzero" fill="rgb(0,0,0)" stroke-miterlimit="4" stroke-linejoin="miter" stroke-dashoffset="0" stroke-linecap="butt" stroke-dasharray="none" stroke-width="0" stroke="none" points="-417.32000732421875,-489.20001220703125 -410.3399963378906,-498.8500061035156 -404.6700134277344,-475.1499938964844 -417.32000732421875,-489.20001220703125" vector-effect="non-scaling-stroke"/>
  </g>
  <g id="polygon867" transform="matrix(1 0 0 1 478.69 544.63)">
   <polygon id="svg_10" fill-rule="nonzero" fill="rgb(0,0,0)" stroke-miterlimit="4" stroke-linejoin="miter" stroke-dashoffset="0" stroke-linecap="butt" stroke-dasharray="none" stroke-width="0" stroke="none" points="-417.5,-478.55999755859375 -404.510009765625,-495.44000244140625 -406.760009765625,-478.55999755859375 -417.5,-478.55999755859375" vector-effect="non-scaling-stroke"/>
  </g>
  <g id="polygon869" transform="matrix(1 0 0 1 472.12 540.08)">
   <polygon id="svg_11" fill-rule="nonzero" fill="rgb(0,0,0)" stroke-miterlimit="4" stroke-linejoin="miter" stroke-dashoffset="0" stroke-linecap="butt" stroke-dasharray="none" stroke-width="0" stroke="none" points="-417.8599853515625,-499.0299987792969 -404.1300048828125,-485.3299865722656 -412.1000061035156,-474.9700012207031 -417.8599853515625,-499.0299987792969" vector-effect="non-scaling-stroke"/>
  </g>
  <g id="polygon871" transform="matrix(1 0 0 1 455.72 545.31)">
   <polygon id="svg_12" fill-rule="nonzero" fill="rgb(0,0,0)" stroke-miterlimit="4" stroke-linejoin="miter" stroke-dashoffset="0" stroke-linecap="butt" stroke-dasharray="none" stroke-width="0" stroke="none" points="-423.7099914550781,-485.8699951171875 -411.2900085449219,-494.2200012207031 -398.2900085449219,-479.7900085449219 -423.7099914550781,-485.8699951171875" vector-effect="non-scaling-stroke"/>
  </g>
  <g id="polygon873" transform="matrix(1 0 0 1 443.83 539.18)">
   <polygon id="svg_13" fill-rule="nonzero" fill="rgb(0,0,0)" stroke-miterlimit="4" stroke-linejoin="miter" stroke-dashoffset="0" stroke-linecap="butt" stroke-dasharray="none" stroke-width="0" stroke="none" points="-414.0899963378906,-493.3699951171875 -405.1099853515625,-488.54998779296875 -416.8900146484375,-480.6300048828125 -414.0899963378906,-493.3699951171875" vector-effect="non-scaling-stroke"/>
  </g>
  <g id="polygon875" transform="matrix(1 0 0 1 455.22 561.74)">
   <polygon id="svg_14" fill-rule="nonzero" fill="rgb(0,0,0)" stroke-miterlimit="4" stroke-linejoin="miter" stroke-dashoffset="0" stroke-linecap="butt" stroke-dasharray="none" stroke-width="0" stroke="none" points="-424.2099914550781,-500.70001220703125 -397.7900085449219,-494.3800048828125 -409.4599914550781,-473.29998779296875 -424.2099914550781,-500.70001220703125" vector-effect="non-scaling-stroke"/>
  </g>
  <g id="polygon877" transform="matrix(1 0 0 1 439.63 525.48)">
   <polygon id="svg_15" fill-rule="nonzero" fill="rgb(0,0,0)" stroke-miterlimit="4" stroke-linejoin="miter" stroke-dashoffset="0" stroke-linecap="butt" stroke-dasharray="none" stroke-width="0" stroke="none" points="-411.3800048828125,-490.2300109863281 -414.07000732421875,-483.7699890136719 -407.92999267578125,-485.260009765625 -411.3800048828125,-490.2300109863281" vector-effect="non-scaling-stroke"/>
  </g>
  <g id="polygon879" transform="matrix(1 0 0 1 431.01 532.1)">
   <polygon id="svg_16" fill-rule="nonzero" fill="rgb(0,0,0)" stroke-miterlimit="4" stroke-linejoin="miter" stroke-dashoffset="0" stroke-linecap="butt" stroke-dasharray="none" stroke-width="0" stroke="none" points="-410.45001220703125,-491.70001220703125 -414.7900085449219,-484.42999267578125 -407.2099914550781,-482.29998779296875 -410.45001220703125,-491.70001220703125" vector-effect="non-scaling-stroke"/>
  </g>
  <g id="polygon881" transform="matrix(1 0 0 1 427.22 520.81)">
   <polygon id="svg_17" fill-rule="nonzero" fill="rgb(0,0,0)" stroke-miterlimit="4" stroke-linejoin="miter" stroke-dashoffset="0" stroke-linecap="butt" stroke-dasharray="none" stroke-width="0" stroke="none" points="-413.1000061035156,-488.989990234375 -413.5,-485 -408.5,-485.32000732421875 -413.1000061035156,-488.989990234375" vector-effect="non-scaling-stroke"/>
  </g>
 </g>
</svg>